<svg width="34" height="34" viewBox="0 0 34 34" fill="none" xmlns="http://www.w3.org/2000/svg">
<g opacity="0.8">
<path d="M6.24219 9.5625H7.57031V10.8906C7.57031 11.4407 8.0163 11.8867 8.56641 11.8867C9.11652 11.8867 9.5625 11.4407 9.5625 10.8906V9.5625H10.8906C11.4407 9.5625 11.8867 9.11652 11.8867 8.56641C11.8867 8.0163 11.4407 7.57031 10.8906 7.57031H9.5625V6.24219C9.5625 5.69208 9.11652 5.24609 8.56641 5.24609C8.0163 5.24609 7.57031 5.69208 7.57031 6.24219V7.57031H6.24219C5.69208 7.57031 5.24609 8.0163 5.24609 8.56641C5.24609 9.11652 5.69208 9.5625 6.24219 9.5625Z" fill="black"/>
<path d="M21.7148 9.5625H25.6992C26.2493 9.5625 26.6953 9.11652 26.6953 8.56641C26.6953 8.0163 26.2493 7.57031 25.6992 7.57031H21.7148C21.1647 7.57031 20.7188 8.0163 20.7188 8.56641C20.7188 9.11652 21.1647 9.5625 21.7148 9.5625Z" fill="black"/>
<path d="M26.0312 24.3711H21.3828C20.8327 24.3711 20.3867 24.8171 20.3867 25.3672C20.3867 25.9173 20.8327 26.3633 21.3828 26.3633H26.0312C26.5814 26.3633 27.0273 25.9173 27.0273 25.3672C27.0273 24.8171 26.5814 24.3711 26.0312 24.3711Z" fill="black"/>
<path d="M26.0312 21.0508H21.3828C20.8327 21.0508 20.3867 21.4968 20.3867 22.0469C20.3867 22.597 20.8327 23.043 21.3828 23.043H26.0312C26.5814 23.043 27.0273 22.597 27.0273 22.0469C27.0273 21.4968 26.5814 21.0508 26.0312 21.0508Z" fill="black"/>
<path d="M10.9309 21.3426C10.542 20.9536 9.91123 20.9536 9.52222 21.3426L8.56644 22.2984L7.61059 21.3425C7.22165 20.9535 6.59092 20.9535 6.20191 21.3425C5.8129 21.7315 5.8129 22.3622 6.20191 22.7512L7.15776 23.7071L6.20191 24.6629C5.8129 25.0519 5.8129 25.6826 6.20191 26.0716C6.39642 26.2661 6.65135 26.3633 6.90628 26.3633C7.16122 26.3633 7.41615 26.2661 7.61059 26.0715L8.56644 25.1157L9.52229 26.0716C9.71672 26.2661 9.97166 26.3633 10.2266 26.3633C10.4815 26.3633 10.7365 26.2661 10.9309 26.0715C11.3199 25.6825 11.3199 25.0519 10.9309 24.6629L9.97511 23.7071L10.931 22.7512C11.32 22.3623 11.32 21.7315 10.9309 21.3426Z" fill="black"/>
<path d="M32.2734 18.0073V2.98828C32.2734 1.34054 30.9329 0 29.2852 0H2.98828C1.34054 0 0 1.34054 0 2.98828V29.2852C0 30.9329 1.34054 32.2734 2.98828 32.2734H18.0072C19.6402 33.3636 21.6006 34 23.707 34C29.3826 34 34 29.3826 34 23.707C34 21.6006 33.3636 19.6402 32.2734 18.0073ZM30.2812 2.98828V15.7934C28.4968 14.3085 26.2045 13.4141 23.707 13.4141C21.2096 13.4141 18.9172 14.3085 17.1328 15.7934V1.99219H29.2852C29.8344 1.99219 30.2812 2.43904 30.2812 2.98828ZM2.98828 1.99219H15.1406V15.1406H1.99219V2.98828C1.99219 2.43904 2.43904 1.99219 2.98828 1.99219ZM1.99219 29.2852V17.1328H15.1406V18.0073C14.0505 19.6402 13.4141 21.6006 13.4141 23.707C13.4141 26.2045 14.3085 28.4968 15.7934 30.2812H2.98828C2.43904 30.2812 1.99219 29.8344 1.99219 29.2852ZM23.707 32.0078C19.13 32.0078 15.4062 28.2841 15.4062 23.707C15.4062 19.13 19.13 15.4062 23.707 15.4062C28.2841 15.4062 32.0078 19.13 32.0078 23.707C32.0078 28.2841 28.2841 32.0078 23.707 32.0078Z" fill="black"/>
</g>
</svg>
