<svg width="32" height="32" viewBox="0 0 32 32" fill="none" xmlns="http://www.w3.org/2000/svg">
<rect width="32" height="32" rx="4" fill="#65C4E2"/>
<path fill-rule="evenodd" clip-rule="evenodd" d="M16.2505 12.5C15.2855 12.5 14.5005 13.285 14.5005 14.251C14.5005 15.216 15.2855 16 16.2505 16C17.2155 16 18.0005 15.216 18.0005 14.251C18.0005 13.285 17.2155 12.5 16.2505 12.5ZM16.2505 17.5C14.4585 17.5 13.0005 16.043 13.0005 14.251C13.0005 12.458 14.4585 11 16.2505 11C18.0425 11 19.5005 12.458 19.5005 14.251C19.5005 16.043 18.0425 17.5 16.2505 17.5Z" fill="#FAFAFA"/>
<mask id="mask0_1240:9572" style="mask-type:alpha" maskUnits="userSpaceOnUse" x="8" y="6" width="17" height="20">
<path fill-rule="evenodd" clip-rule="evenodd" d="M8 6H24.4995V25.5H8V6Z" fill="white"/>
</mask>
<g mask="url(#mask0_1240:9572)">
<path fill-rule="evenodd" clip-rule="evenodd" d="M16.2495 7.5C12.5275 7.5 9.49951 10.557 9.49951 14.313C9.49951 19.092 15.1235 23.748 16.2495 23.996C17.3755 23.747 22.9995 19.091 22.9995 14.313C22.9995 10.557 19.9715 7.5 16.2495 7.5ZM16.2495 25.5C14.4555 25.5 7.99951 19.948 7.99951 14.313C7.99951 9.729 11.7005 6 16.2495 6C20.7985 6 24.4995 9.729 24.4995 14.313C24.4995 19.948 18.0435 25.5 16.2495 25.5Z" fill="#FAFAFA"/>
</g>
</svg>
